{"asset": {"generator": "Khronos glTF Blender I/O v5.1.18", "version": "2.0"}, "scene": 0, "scenes": [{"name": "Scene", "nodes": [0, 1, 2, 3, 4, 5, 6, 7, 8, 9, 10]}], "nodes": [{"mesh": 0, "name": "Cube.001", "rotation": [0, 0.7071068286895752, 0, 0.7071068286895752], "scale": [0.3402966558933258, 0.42449045181274414, 0.7456710934638977], "translation": [0.8409833312034607, 0.7095885276794434, 3.707935333251953]}, {"mesh": 1, "name": "Cube.002", "rotation": [0, 0.7071067094802856, 0, 0.7071068286895752], "scale": [0.031614869832992554, 0.391298770904541, 0.2500208914279938], "translation": [0.7046501040458679, 1.0067731142044067, 4.464332103729248]}, {"mesh": 2, "name": "Cube.003", "rotation": [0, 0.7071067094802856, 0, 0.7071068286895752], "scale": [0.04351021349430084, 0.05756424739956856, 0.04351021349430084], "translation": [0.39730513095855713, 2.2090647220611572, 3.8304667472839355]}, {"mesh": 3, "name": "Cube.004", "rotation": [0, 0.7071067094802856, 0, 0.7071068286895752], "scale": [0.028649991378188133, 0.11921263486146927, 0.028649991378188133], "translation": [0.39730513095855713, 2.3128702640533447, 3.8304667472839355]}, {"mesh": 4, "name": "Cube.005", "rotation": [0, 0.7071067094802856, 0, 0.7071068286895752], "scale": [0.2662883400917053, 0.02650250308215618, 0.2662883400917053], "translation": [0.7059683799743652, 0.28645652532577515, 4.234577655792236]}, {"mesh": 5, "name": "Cube", "rotation": [0, 0, -0.7071068286895752, 0.7071068286895752], "scale": [1.5824964046478271, 1.8482414484024048, 1.8680599927902222], "translation": [-0.22598986327648163, 1.6444752216339111, 4.974687576293945]}, {"mesh": 6, "name": "Cube.007", "rotation": [0, -0.7071068286895752, 0, 0.7071068286895752], "scale": [0.3899851441383362, 0.29600033164024353, 0.7541570663452148], "translation": [-0.8813470005989075, 0.6079498529434204, 3.804226875305176]}, {"mesh": 7, "name": "Cube.008", "rotation": [0, 1, 0, 0], "scale": [-0.21913951635360718, -0.03552350774407387, -0.5289071798324585], "translation": [-1.6511714458465576, 2.29831600189209, 5.029379367828369]}, {"mesh": 8, "name": "Cube.009", "rotation": [0, 1, 0, 0], "scale": [-0.21913951635360718, -0.03255956247448921, -0.48477715253829956], "translation": [-1.6511714458465576, 1.8668208122253418, 5.756807804107666]}, {"mesh": 9, "name": "Plane", "scale": [1.367244005203247, 1.5077637434005737, 1.3245856761932373], "translation": [-0.04487033188343048, 0.30682098865509033, 5.098226547241211]}, {"mesh": 10, "name": "Cube.006", "scale": [0.4615694284439087, 0.6899004578590393, 0.31051743030548096], "translation": [0.6775701642036438, 2.039794921875, 3.1442556381225586]}], "animations": [{"channels": [{"sampler": 0, "target": {"node": 2, "path": "translation"}}], "name": "Cube.003Action", "samplers": [{"input": 41, "interpolation": "LINEAR", "output": 42}]}, {"channels": [{"sampler": 0, "target": {"node": 3, "path": "translation"}}], "name": "Cube.004Action", "samplers": [{"input": 41, "interpolation": "LINEAR", "output": 43}]}], "meshes": [{"name": "Cube.008", "primitives": [{"attributes": {"POSITION": 0, "NORMAL": 1, "TEXCOORD_0": 2}, "indices": 3}]}, {"name": "Cube.010", "primitives": [{"attributes": {"POSITION": 4, "NORMAL": 5, "TEXCOORD_0": 6}, "indices": 7}]}, {"name": "Cube.012", "primitives": [{"attributes": {"POSITION": 8, "NORMAL": 9, "TEXCOORD_0": 10}, "indices": 11}]}, {"name": "Cube.013", "primitives": [{"attributes": {"POSITION": 12, "NORMAL": 13, "TEXCOORD_0": 14}, "indices": 11}]}, {"name": "Cube.014", "primitives": [{"attributes": {"POSITION": 15, "NORMAL": 16, "TEXCOORD_0": 17}, "indices": 18}]}, {"name": "Cube.004", "primitives": [{"attributes": {"POSITION": 19, "NORMAL": 20, "TEXCOORD_0": 21}, "indices": 22}]}, {"name": "Cube.006", "primitives": [{"attributes": {"POSITION": 23, "NORMAL": 24, "TEXCOORD_0": 25}, "indices": 26}]}, {"name": "Cube.009", "primitives": [{"attributes": {"POSITION": 27, "NORMAL": 28, "TEXCOORD_0": 29}, "indices": 30}]}, {"name": "Cube.011", "primitives": [{"attributes": {"POSITION": 31, "NORMAL": 32, "TEXCOORD_0": 33}, "indices": 30}]}, {"name": "Plane", "primitives": [{"attributes": {"POSITION": 34, "NORMAL": 35, "TEXCOORD_0": 36}, "indices": 37}]}, {"name": "Cube.015", "primitives": [{"attributes": {"POSITION": 38, "NORMAL": 39, "TEXCOORD_0": 40}, "indices": 30}]}], "accessors": [{"bufferView": 0, "componentType": 5126, "count": 290, "max": [1, 1, 1], "min": [-1, -1.0168148279190063, -1], "type": "VEC3"}, {"bufferView": 1, "componentType": 5126, "count": 290, "type": "VEC3"}, {"bufferView": 2, "componentType": 5126, "count": 290, "type": "VEC2"}, {"bufferView": 3, "componentType": 5123, "count": 1524, "type": "SCALAR"}, {"bufferView": 4, "componentType": 5126, "count": 262, "max": [15.147072792053223, 1, 1], "min": [-2.4419941902160645, -1.0050591230392456, -1], "type": "VEC3"}, {"bufferView": 5, "componentType": 5126, "count": 262, "type": "VEC3"}, {"bufferView": 6, "componentType": 5126, "count": 262, "type": "VEC2"}, {"bufferView": 7, "componentType": 5123, "count": 1392, "type": "SCALAR"}, {"bufferView": 8, "componentType": 5126, "count": 24, "max": [1, 1, 1], "min": [-1, -1, -1], "type": "VEC3"}, {"bufferView": 9, "componentType": 5126, "count": 24, "type": "VEC3"}, {"bufferView": 10, "componentType": 5126, "count": 24, "type": "VEC2"}, {"bufferView": 11, "componentType": 5123, "count": 84, "type": "SCALAR"}, {"bufferView": 12, "componentType": 5126, "count": 24, "max": [1, 1, 1], "min": [-1, -1, -1], "type": "VEC3"}, {"bufferView": 13, "componentType": 5126, "count": 24, "type": "VEC3"}, {"bufferView": 14, "componentType": 5126, "count": 24, "type": "VEC2"}, {"bufferView": 15, "componentType": 5126, "count": 27, "max": [1, 5.909730911254883, 1], "min": [-1, -0.8954445123672485, -1], "type": "VEC3"}, {"bufferView": 16, "componentType": 5126, "count": 27, "type": "VEC3"}, {"bufferView": 17, "componentType": 5126, "count": 27, "type": "VEC2"}, {"bufferView": 18, "componentType": 5123, "count": 108, "type": "SCALAR"}, {"bufferView": 19, "componentType": 5126, "count": 12, "max": [1, 1, 1], "min": [-1, -1, -1], "type": "VEC3"}, {"bufferView": 20, "componentType": 5126, "count": 12, "type": "VEC3"}, {"bufferView": 21, "componentType": 5126, "count": 12, "type": "VEC2"}, {"bufferView": 22, "componentType": 5123, "count": 18, "type": "SCALAR"}, {"bufferView": 23, "componentType": 5126, "count": 57, "max": [1, 1, 1], "min": [-1, -1, -1], "type": "VEC3"}, {"bufferView": 24, "componentType": 5126, "count": 57, "type": "VEC3"}, {"bufferView": 25, "componentType": 5126, "count": 57, "type": "VEC2"}, {"bufferView": 26, "componentType": 5123, "count": 186, "type": "SCALAR"}, {"bufferView": 27, "componentType": 5126, "count": 24, "max": [1, 1, 1], "min": [-1, -1, -1], "type": "VEC3"}, {"bufferView": 28, "componentType": 5126, "count": 24, "type": "VEC3"}, {"bufferView": 29, "componentType": 5126, "count": 24, "type": "VEC2"}, {"bufferView": 30, "componentType": 5123, "count": 36, "type": "SCALAR"}, {"bufferView": 31, "componentType": 5126, "count": 24, "max": [1, 1, 1], "min": [-1, -1, -1], "type": "VEC3"}, {"bufferView": 32, "componentType": 5126, "count": 24, "type": "VEC3"}, {"bufferView": 33, "componentType": 5126, "count": 24, "type": "VEC2"}, {"bufferView": 34, "componentType": 5126, "count": 4, "max": [1, 0, 1], "min": [-1, 0, -1], "type": "VEC3"}, {"bufferView": 35, "componentType": 5126, "count": 4, "type": "VEC3"}, {"bufferView": 36, "componentType": 5126, "count": 4, "type": "VEC2"}, {"bufferView": 37, "componentType": 5123, "count": 6, "type": "SCALAR"}, {"bufferView": 38, "componentType": 5126, "count": 24, "max": [1, 1, 1], "min": [-1, -1, -1], "type": "VEC3"}, {"bufferView": 39, "componentType": 5126, "count": 24, "type": "VEC3"}, {"bufferView": 40, "componentType": 5126, "count": 24, "type": "VEC2"}, {"bufferView": 41, "componentType": 5126, "count": 1, "max": [0.4583333333333333], "min": [0.4583333333333333], "type": "SCALAR"}, {"bufferView": 42, "componentType": 5126, "count": 1, "type": "VEC3"}, {"bufferView": 43, "componentType": 5126, "count": 1, "type": "VEC3"}], "bufferViews": [{"buffer": 0, "byteLength": 3480, "byteOffset": 0, "target": 34962}, {"buffer": 0, "byteLength": 3480, "byteOffset": 3480, "target": 34962}, {"buffer": 0, "byteLength": 2320, "byteOffset": 6960, "target": 34962}, {"buffer": 0, "byteLength": 3048, "byteOffset": 9280, "target": 34963}, {"buffer": 0, "byteLength": 3144, "byteOffset": 12328, "target": 34962}, {"buffer": 0, "byteLength": 3144, "byteOffset": 15472, "target": 34962}, {"buffer": 0, "byteLength": 2096, "byteOffset": 18616, "target": 34962}, {"buffer": 0, "byteLength": 2784, "byteOffset": 20712, "target": 34963}, {"buffer": 0, "byteLength": 288, "byteOffset": 23496, "target": 34962}, {"buffer": 0, "byteLength": 288, "byteOffset": 23784, "target": 34962}, {"buffer": 0, "byteLength": 192, "byteOffset": 24072, "target": 34962}, {"buffer": 0, "byteLength": 168, "byteOffset": 24264, "target": 34963}, {"buffer": 0, "byteLength": 288, "byteOffset": 24432, "target": 34962}, {"buffer": 0, "byteLength": 288, "byteOffset": 24720, "target": 34962}, {"buffer": 0, "byteLength": 192, "byteOffset": 25008, "target": 34962}, {"buffer": 0, "byteLength": 324, "byteOffset": 25200, "target": 34962}, {"buffer": 0, "byteLength": 324, "byteOffset": 25524, "target": 34962}, {"buffer": 0, "byteLength": 216, "byteOffset": 25848, "target": 34962}, {"buffer": 0, "byteLength": 216, "byteOffset": 26064, "target": 34963}, {"buffer": 0, "byteLength": 144, "byteOffset": 26280, "target": 34962}, {"buffer": 0, "byteLength": 144, "byteOffset": 26424, "target": 34962}, {"buffer": 0, "byteLength": 96, "byteOffset": 26568, "target": 34962}, {"buffer": 0, "byteLength": 36, "byteOffset": 26664, "target": 34963}, {"buffer": 0, "byteLength": 684, "byteOffset": 26700, "target": 34962}, {"buffer": 0, "byteLength": 684, "byteOffset": 27384, "target": 34962}, {"buffer": 0, "byteLength": 456, "byteOffset": 28068, "target": 34962}, {"buffer": 0, "byteLength": 372, "byteOffset": 28524, "target": 34963}, {"buffer": 0, "byteLength": 288, "byteOffset": 28896, "target": 34962}, {"buffer": 0, "byteLength": 288, "byteOffset": 29184, "target": 34962}, {"buffer": 0, "byteLength": 192, "byteOffset": 29472, "target": 34962}, {"buffer": 0, "byteLength": 72, "byteOffset": 29664, "target": 34963}, {"buffer": 0, "byteLength": 288, "byteOffset": 29736, "target": 34962}, {"buffer": 0, "byteLength": 288, "byteOffset": 30024, "target": 34962}, {"buffer": 0, "byteLength": 192, "byteOffset": 30312, "target": 34962}, {"buffer": 0, "byteLength": 48, "byteOffset": 30504, "target": 34962}, {"buffer": 0, "byteLength": 48, "byteOffset": 30552, "target": 34962}, {"buffer": 0, "byteLength": 32, "byteOffset": 30600, "target": 34962}, {"buffer": 0, "byteLength": 12, "byteOffset": 30632, "target": 34963}, {"buffer": 0, "byteLength": 288, "byteOffset": 30644, "target": 34962}, {"buffer": 0, "byteLength": 288, "byteOffset": 30932, "target": 34962}, {"buffer": 0, "byteLength": 192, "byteOffset": 31220, "target": 34962}, {"buffer": 0, "byteLength": 4, "byteOffset": 31412}, {"buffer": 0, "byteLength": 12, "byteOffset": 31416}, {"buffer": 0, "byteLength": 12, "byteOffset": 31428}], "buffers": [{"byteLength": 31440, "uri": "data:application/octet-stream;base64,"}]}